<svg xmlns="http://www.w3.org/2000/svg" xmlns:ev="http://www.w3.org/2001/xml-events" xmlns:xlink="http://www.w3.org/1999/xlink" baseProfile="full" height="200" version="1.1" width="200"><defs><style type="text/css"><![CDATA[.axis {font-weight: bold}.tree, .axis {font-size: 14px; text-anchor:middle}.edge {stroke: black; fill: none}.node > .sym {fill: black; stroke: none}.tree text {dominant-baseline: middle}.tree .lab.lft {text-anchor: end}.tree .lab.rgt {text-anchor: start}.mut {fill: red; font-style: italic}]]></style></defs><g class="tree-sequence"><g class="background"><polygon fill="#F1F1F1" points="20,185 20,180 20,160 20,0 180.0,0 180.0,160 180.0,180 180.0,185"/></g><g class="trees"><g class="treebox t0" transform="translate(20 30)"><g class="tree t0"><g class="node n10 p0 root" transform="translate(101.25 30.0)"><g class="a10 i0 leaf node n1 p0 sample" transform="translate(28.75 80.0)"><path class="edge" d="M 0 0 V -80.0 H -28.75"/><circle class="sym" cx="0" cy="0" r="3"/><text class="lab" transform="translate(0 12)">1</text></g><g class="a10 node n9 p0" transform="translate(-28.75 28.471)"><g class="a9 node n7 p0" transform="translate(-27.5 39.7191)"><g class="a7 i0 leaf node n0 p0 sample" transform="translate(-15.0 11.8099)"><path class="edge" d="M 0 0 V -11.8099 H 15.0"/><circle class="sym" cx="0" cy="0" r="3"/><text class="lab" transform="translate(0 12)">0</text></g><g class="a7 node n6 p0" transform="translate(15.0 4.69722)"><g class="a6 i2 leaf node n4 p0 sample" transform="translate(-10.0 7.11265)"><path class="edge" d="M 0 0 V -7.11265 H 10.0"/><circle class="sym" cx="0" cy="0" r="3"/><text class="lab" transform="translate(0 12)">4</text></g><g class="a6 i2 leaf node n5 p0 sample" transform="translate(10.0 7.11265)"><path class="edge" d="M 0 0 V -7.11265 H -10.0"/><circle class="sym" cx="0" cy="0" r="3"/><text class="lab" transform="translate(0 12)">5</text></g><path class="edge" d="M 0 0 V -4.69722 H -15.0"/><circle class="sym" cx="0" cy="0" r="3"/><text class="lab rgt" transform="translate(3 -6)">6</text></g><path class="edge" d="M 0 0 V -39.7191 H 27.5"/><circle class="sym" cx="0" cy="0" r="3"/><text class="lab lft" transform="translate(-3 -6)">7</text></g><g class="a9 node n8 p0" transform="translate(27.5 16.6003)"><g class="a8 i1 leaf node n2 p0 sample" transform="translate(-10.0 34.9287)"><path class="edge" d="M 0 0 V -34.9287 H 10.0"/><circle class="sym" cx="0" cy="0" r="3"/><text class="lab" transform="translate(0 12)">2</text></g><g class="a8 i1 leaf node n3 p0 sample" transform="translate(10.0 34.9287)"><path class="edge" d="M 0 0 V -34.9287 H -10.0"/><circle class="sym" cx="0" cy="0" r="3"/><text class="lab" transform="translate(0 12)">3</text></g><path class="edge" d="M 0 0 V -16.6003 H -27.5"/><circle class="sym" cx="0" cy="0" r="3"/><text class="lab rgt" transform="translate(3 -6)">8</text></g><path class="edge" d="M 0 0 V -28.471 H 28.75"/><circle class="sym" cx="0" cy="0" r="3"/><text class="lab lft" transform="translate(-3 -6)">9</text></g><circle class="sym" cx="0" cy="0" r="3"/><text class="lab" transform="translate(0 -10)">10</text></g></g></g></g><g class="axis"><line stroke="black" x1="20" x2="180" y1="180" y2="180"/><line stroke="black" x1="20" x2="20" y1="180" y2="185"/><g transform="translate(20, 200)"><text font-size="14" font-weight="bold" text-anchor="middle">0</text></g><line stroke="black" x1="180.0" x2="180.0" y1="180" y2="185"/><g transform="translate(180.0, 200)"><text font-size="14" font-weight="bold" text-anchor="middle">1</text></g></g></g></svg>