<svg xmlns="http://www.w3.org/2000/svg" xmlns:ev="http://www.w3.org/2001/xml-events" xmlns:xlink="http://www.w3.org/1999/xlink" baseProfile="full" height="200" version="1.1" width="200"><defs><style type="text/css"><![CDATA[.axis {font-weight: bold}.tree, .axis {font-size: 14px; text-anchor:middle}.edge {stroke: black; fill: none}.node > .sym {fill: black; stroke: none}.tree text {dominant-baseline: middle}.tree .lab.lft {text-anchor: end}.tree .lab.rgt {text-anchor: start}.mut {fill: red; font-style: italic}]]></style></defs><g class="tree-sequence"><g class="background"><polygon fill="#F1F1F1" points="20,185 20,180 20,160 20,0 180.0,0 180.0,160 180.0,180 180.0,185"/></g><g class="trees"><g class="treebox t0" transform="translate(20 30)"><g class="tree t0"><g class="node n10 p0 root" transform="translate(70.0 30.0)"><g class="a10 node n7 p0" transform="translate(-30.0 66.5525)"><g class="a7 i0 leaf node n0 p0 sample" transform="translate(-10.0 13.4475)"><path class="edge" d="M 0 0 V -13.4475 H 10.0"/><circle class="sym" cx="0" cy="0" r="3"/><text class="lab" transform="translate(0 12)">0</text></g><g class="a7 i2 leaf node n4 p0 sample" transform="translate(10.0 13.4475)"><path class="edge" d="M 0 0 V -13.4475 H -10.0"/><circle class="sym" cx="0" cy="0" r="3"/><text class="lab" transform="translate(0 12)">4</text></g><path class="edge" d="M 0 0 V -66.5525 H 30.0"/><circle class="sym" cx="0" cy="0" r="3"/><text class="lab lft" transform="translate(-3 -6)">7</text></g><g class="a10 node n9 p0" transform="translate(30.0 51.1092)"><g class="a9 node n6 p0" transform="translate(-20.0 16.6005)"><g class="a6 i0 leaf node n1 p0 sample" transform="translate(-10.0 12.2903)"><path class="edge" d="M 0 0 V -12.2903 H 10.0"/><circle class="sym" cx="0" cy="0" r="3"/><text class="lab" transform="translate(0 12)">1</text></g><g class="a6 i1 leaf node n3 p0 sample" transform="translate(10.0 12.2903)"><path class="edge" d="M 0 0 V -12.2903 H -10.0"/><circle class="sym" cx="0" cy="0" r="3"/><text class="lab" transform="translate(0 12)">3</text></g><path class="edge" d="M 0 0 V -16.6005 H 20.0"/><circle class="sym" cx="0" cy="0" r="3"/><text class="lab lft" transform="translate(-3 -6)">6</text></g><g class="a9 node n8 p0" transform="translate(20.0 14.3287)"><g class="a8 i1 leaf node n2 p0 sample" transform="translate(-10.0 14.5621)"><path class="edge" d="M 0 0 V -14.5621 H 10.0"/><circle class="sym" cx="0" cy="0" r="3"/><text class="lab" transform="translate(0 12)">2</text></g><g class="a8 i2 leaf node n5 p0 sample" transform="translate(10.0 14.5621)"><path class="edge" d="M 0 0 V -14.5621 H -10.0"/><circle class="sym" cx="0" cy="0" r="3"/><text class="lab" transform="translate(0 12)">5</text></g><path class="edge" d="M 0 0 V -14.3287 H -20.0"/><circle class="sym" cx="0" cy="0" r="3"/><text class="lab rgt" transform="translate(3 -6)">8</text></g><path class="edge" d="M 0 0 V -51.1092 H -30.0"/><circle class="sym" cx="0" cy="0" r="3"/><text class="lab rgt" transform="translate(3 -6)">9</text></g><circle class="sym" cx="0" cy="0" r="3"/><text class="lab" transform="translate(0 -10)">10</text></g></g></g></g><g class="axis"><line stroke="black" x1="20" x2="180" y1="180" y2="180"/><line stroke="black" x1="20" x2="20" y1="180" y2="185"/><g transform="translate(20, 200)"><text font-size="14" font-weight="bold" text-anchor="middle">0</text></g><line stroke="black" x1="180.0" x2="180.0" y1="180" y2="185"/><g transform="translate(180.0, 200)"><text font-size="14" font-weight="bold" text-anchor="middle">1</text></g></g></g></svg>