<svg xmlns="http://www.w3.org/2000/svg" xmlns:ev="http://www.w3.org/2001/xml-events" xmlns:xlink="http://www.w3.org/1999/xlink" baseProfile="full" height="200" version="1.1" width="200"><defs><style type="text/css"><![CDATA[.axis {font-weight: bold}.tree, .axis {font-size: 14px; text-anchor:middle}.edge {stroke: black; fill: none}.node > .sym {fill: black; stroke: none}.tree text {dominant-baseline: middle}.tree .lab.lft {text-anchor: end}.tree .lab.rgt {text-anchor: start}.mut {fill: red; font-style: italic}]]></style></defs><g class="tree-sequence"><g class="background"><polygon fill="#F1F1F1" points="20,185 20,180 20,160 20,0 180.0,0 180.0,160 180.0,180 180.0,185"/></g><g class="trees"><g class="treebox t0" transform="translate(20 30)"><g class="tree t0"><g class="node n11 p0 root" transform="translate(105.455 30.0)"><g class="a11 i1 leaf node n1 p0 sample" transform="translate(31.8182 80.0)"><path class="edge" d="M 0 0 V -80.0 H -31.8182"/><circle class="sym" cx="0" cy="0" r="3"/><text class="lab" transform="translate(0 12)">1</text></g><g class="a11 node n10 p0" transform="translate(-31.8182 65.5816)"><g class="a10 i0 leaf node n0 p0 sample" transform="translate(-50.9091 14.4184)"><path class="edge" d="M 0 0 V -14.4184 H 50.9091"/><circle class="sym" cx="0" cy="0" r="3"/><text class="lab" transform="translate(0 12)">0</text></g><g class="a10 i2 leaf node n2 p0 sample" transform="translate(-38.1818 14.4184)"><path class="edge" d="M 0 0 V -14.4184 H 38.1818"/><circle class="sym" cx="0" cy="0" r="3"/><text class="lab" transform="translate(0 12)">2</text></g><g class="a10 i3 leaf node n3 p0 sample" transform="translate(-25.4545 14.4184)"><path class="edge" d="M 0 0 V -14.4184 H 25.4545"/><circle class="sym" cx="0" cy="0" r="3"/><text class="lab" transform="translate(0 12)">3</text></g><g class="a10 i4 leaf node n4 p0 sample" transform="translate(-12.7273 14.4184)"><path class="edge" d="M 0 0 V -14.4184 H 12.7273"/><circle class="sym" cx="0" cy="0" r="3"/><text class="lab" transform="translate(0 12)">4</text></g><g class="a10 i5 leaf node n5 p0 sample" transform="translate(0.0 14.4184)"><path class="edge" d="M 0 0 V -14.4184 H 0.0"/><circle class="sym" cx="0" cy="0" r="3"/><text class="lab" transform="translate(0 12)">5</text></g><g class="a10 i6 leaf node n6 p0 sample" transform="translate(12.7273 14.4184)"><path class="edge" d="M 0 0 V -14.4184 H -12.7273"/><circle class="sym" cx="0" cy="0" r="3"/><text class="lab" transform="translate(0 12)">6</text></g><g class="a10 i7 leaf node n7 p0 sample" transform="translate(25.4545 14.4184)"><path class="edge" d="M 0 0 V -14.4184 H -25.4545"/><circle class="sym" cx="0" cy="0" r="3"/><text class="lab" transform="translate(0 12)">7</text></g><g class="a10 i8 leaf node n8 p0 sample" transform="translate(38.1818 14.4184)"><path class="edge" d="M 0 0 V -14.4184 H -38.1818"/><circle class="sym" cx="0" cy="0" r="3"/><text class="lab" transform="translate(0 12)">8</text></g><g class="a10 i9 leaf node n9 p0 sample" transform="translate(50.9091 14.4184)"><path class="edge" d="M 0 0 V -14.4184 H -50.9091"/><circle class="sym" cx="0" cy="0" r="3"/><text class="lab" transform="translate(0 12)">9</text></g><path class="edge" d="M 0 0 V -65.5816 H 31.8182"/><circle class="sym" cx="0" cy="0" r="3"/><text class="lab lft" transform="translate(-3 -6)">10</text></g><circle class="sym" cx="0" cy="0" r="3"/><text class="lab" transform="translate(0 -10)">11</text></g></g></g></g><g class="axis"><line stroke="black" x1="20" x2="180" y1="180" y2="180"/><line stroke="black" x1="20" x2="20" y1="180" y2="185"/><g transform="translate(20, 200)"><text font-size="14" font-weight="bold" text-anchor="middle">0</text></g><line stroke="black" x1="180.0" x2="180.0" y1="180" y2="185"/><g transform="translate(180.0, 200)"><text font-size="14" font-weight="bold" text-anchor="middle">1</text></g></g></g></svg>