<svg xmlns="http://www.w3.org/2000/svg" xmlns:ev="http://www.w3.org/2001/xml-events" xmlns:xlink="http://www.w3.org/1999/xlink" baseProfile="full" height="200" version="1.1" width="600"><defs><style type="text/css"><![CDATA[.axis {font-weight: bold}.tree, .axis {font-size: 14px; text-anchor:middle}.edge {stroke: black; fill: none}.node > .sym {fill: black; stroke: none}.tree text {dominant-baseline: middle}.tree .lab.lft {text-anchor: end}.tree .lab.rgt {text-anchor: start}.mut {fill: red; font-style: italic}]]></style></defs><g class="tree-sequence"><g class="background"><polygon fill="#F1F1F1" points="20,185 20,180 20,160 20,0 206.667,0 206.667,160 119.746,180 119.746,185"/><polygon fill="#F1F1F1" points="188.839,185 188.839,180 393.333,160 393.333,0 580.0,0 580.0,160 580.0,180 580.0,185"/></g><g class="trees"><g class="treebox t0" transform="translate(20 30)"><g class="tree t0"><g class="node n10 p0 root" transform="translate(128.304 38.6509)"><g class="a10 i2 leaf node n4 p0 sample" transform="translate(24.5536 71.3491)"><path class="edge" d="M 0 0 V -71.3491 H -24.5536"/><circle class="sym" cx="0" cy="0" r="3"/><text class="lab" transform="translate(0 12)">4</text></g><g class="a10 node n9 p0" transform="translate(-24.5536 51.0488)"><g class="a9 i2 leaf node n5 p0 sample" transform="translate(25.2976 20.3004)"><path class="edge" d="M 0 0 V -20.3004 H -25.2976"/><circle class="sym" cx="0" cy="0" r="3"/><text class="lab" transform="translate(0 12)">5</text></g><g class="a9 node n8 p0" transform="translate(-25.2976 4.98265)"><g class="a8 i1 leaf node n2 p0 sample" transform="translate(26.7857 15.3177)"><path class="edge" d="M 0 0 V -15.3177 H -26.7857"/><circle class="sym" cx="0" cy="0" r="3"/><text class="lab" transform="translate(0 12)">2</text></g><g class="a8 node n7 p0" transform="translate(-26.7857 4.13895)"><g class="a7 i0 leaf node n0 p0 sample" transform="translate(-17.8571 11.1788)"><path class="edge" d="M 0 0 V -11.1788 H 17.8571"/><circle class="sym" cx="0" cy="0" r="3"/><text class="lab" transform="translate(0 12)">0</text></g><g class="a7 node n6 p0" transform="translate(17.8571 8.89284)"><g class="a6 i0 leaf node n1 p0 sample" transform="translate(-11.9048 2.28594)"><path class="edge" d="M 0 0 V -2.28594 H 11.9048"/><circle class="sym" cx="0" cy="0" r="3"/><text class="lab" transform="translate(0 12)">1</text></g><g class="a6 i1 leaf node n3 p0 sample" transform="translate(11.9048 2.28594)"><path class="edge" d="M 0 0 V -2.28594 H -11.9048"/><circle class="sym" cx="0" cy="0" r="3"/><text class="lab" transform="translate(0 12)">3</text></g><path class="edge" d="M 0 0 V -8.89284 H -17.8571"/><circle class="sym" cx="0" cy="0" r="3"/><text class="lab rgt" transform="translate(3 -6)">6</text></g><path class="edge" d="M 0 0 V -4.13895 H 26.7857"/><circle class="sym" cx="0" cy="0" r="3"/><text class="lab lft" transform="translate(-3 -6)">7</text></g><path class="edge" d="M 0 0 V -4.98265 H 25.2976"/><circle class="sym" cx="0" cy="0" r="3"/><text class="lab lft" transform="translate(-3 -6)">8</text></g><path class="edge" d="M 0 0 V -51.0488 H 24.5536"/><circle class="sym" cx="0" cy="0" r="3"/><text class="lab lft" transform="translate(-3 -6)">9</text></g><circle class="sym" cx="0" cy="0" r="3"/><text class="lab" transform="translate(0 -10)">10</text></g></g></g><g class="treebox t1" transform="translate(206.667 30)"><g class="tree t1"><g class="node n11 p0 root" transform="translate(128.304 30.0)"><g class="a11 i2 leaf node n4 p0 sample" transform="translate(24.5536 80.0)"><path class="edge" d="M 0 0 V -80.0 H -24.5536"/><circle class="sym" cx="0" cy="0" r="3"/><text class="lab" transform="translate(0 12)">4</text></g><g class="a11 node n9 p0" transform="translate(-24.5536 59.6996)"><g class="a9 i2 leaf node n5 p0 sample" transform="translate(25.2976 20.3004)"><path class="edge" d="M 0 0 V -20.3004 H -25.2976"/><circle class="sym" cx="0" cy="0" r="3"/><text class="lab" transform="translate(0 12)">5</text></g><g class="a9 node n8 p0" transform="translate(-25.2976 4.98265)"><g class="a8 i1 leaf node n2 p0 sample" transform="translate(26.7857 15.3177)"><path class="edge" d="M 0 0 V -15.3177 H -26.7857"/><circle class="sym" cx="0" cy="0" r="3"/><text class="lab" transform="translate(0 12)">2</text></g><g class="a8 node n7 p0" transform="translate(-26.7857 4.13895)"><g class="a7 i0 leaf node n0 p0 sample" transform="translate(-17.8571 11.1788)"><path class="edge" d="M 0 0 V -11.1788 H 17.8571"/><circle class="sym" cx="0" cy="0" r="3"/><text class="lab" transform="translate(0 12)">0</text></g><g class="a7 node n6 p0" transform="translate(17.8571 8.89284)"><g class="a6 i0 leaf node n1 p0 sample" transform="translate(-11.9048 2.28594)"><path class="edge" d="M 0 0 V -2.28594 H 11.9048"/><circle class="sym" cx="0" cy="0" r="3"/><text class="lab" transform="translate(0 12)">1</text></g><g class="a6 i1 leaf node n3 p0 sample" transform="translate(11.9048 2.28594)"><path class="edge" d="M 0 0 V -2.28594 H -11.9048"/><circle class="sym" cx="0" cy="0" r="3"/><text class="lab" transform="translate(0 12)">3</text></g><path class="edge" d="M 0 0 V -8.89284 H -17.8571"/><circle class="sym" cx="0" cy="0" r="3"/><text class="lab rgt" transform="translate(3 -6)">6</text></g><path class="edge" d="M 0 0 V -4.13895 H 26.7857"/><circle class="sym" cx="0" cy="0" r="3"/><text class="lab lft" transform="translate(-3 -6)">7</text></g><path class="edge" d="M 0 0 V -4.98265 H 25.2976"/><circle class="sym" cx="0" cy="0" r="3"/><text class="lab lft" transform="translate(-3 -6)">8</text></g><path class="edge" d="M 0 0 V -59.6996 H 24.5536"/><circle class="sym" cx="0" cy="0" r="3"/><text class="lab lft" transform="translate(-3 -6)">9</text></g><circle class="sym" cx="0" cy="0" r="3"/><text class="lab" transform="translate(0 -10)">11</text></g></g></g><g class="treebox t2" transform="translate(393.333 30)"><g class="tree t2"><g class="node n11 p0 root" transform="translate(128.304 30.0)"><g class="a11 i2 leaf node n4 p0 sample" transform="translate(24.5536 80.0)"><path class="edge" d="M 0 0 V -80.0 H -24.5536"/><circle class="sym" cx="0" cy="0" r="3"/><text class="lab" transform="translate(0 12)">4</text></g><g class="a11 node n10 p0" transform="translate(-24.5536 8.65085)"><g class="a10 i2 leaf node n5 p0 sample" transform="translate(25.2976 71.3491)"><path class="edge" d="M 0 0 V -71.3491 H -25.2976"/><circle class="sym" cx="0" cy="0" r="3"/><text class="lab" transform="translate(0 12)">5</text></g><g class="a10 node n8 p0" transform="translate(-25.2976 56.0314)"><g class="a8 i1 leaf node n2 p0 sample" transform="translate(26.7857 15.3177)"><path class="edge" d="M 0 0 V -15.3177 H -26.7857"/><circle class="sym" cx="0" cy="0" r="3"/><text class="lab" transform="translate(0 12)">2</text></g><g class="a8 node n7 p0" transform="translate(-26.7857 4.13895)"><g class="a7 i0 leaf node n0 p0 sample" transform="translate(-17.8571 11.1788)"><path class="edge" d="M 0 0 V -11.1788 H 17.8571"/><circle class="sym" cx="0" cy="0" r="3"/><text class="lab" transform="translate(0 12)">0</text></g><g class="a7 node n6 p0" transform="translate(17.8571 8.89284)"><g class="a6 i0 leaf node n1 p0 sample" transform="translate(-11.9048 2.28594)"><path class="edge" d="M 0 0 V -2.28594 H 11.9048"/><circle class="sym" cx="0" cy="0" r="3"/><text class="lab" transform="translate(0 12)">1</text></g><g class="a6 i1 leaf node n3 p0 sample" transform="translate(11.9048 2.28594)"><path class="edge" d="M 0 0 V -2.28594 H -11.9048"/><circle class="sym" cx="0" cy="0" r="3"/><text class="lab" transform="translate(0 12)">3</text></g><path class="edge" d="M 0 0 V -8.89284 H -17.8571"/><circle class="sym" cx="0" cy="0" r="3"/><text class="lab rgt" transform="translate(3 -6)">6</text></g><path class="edge" d="M 0 0 V -4.13895 H 26.7857"/><circle class="sym" cx="0" cy="0" r="3"/><text class="lab lft" transform="translate(-3 -6)">7</text></g><path class="edge" d="M 0 0 V -56.0314 H 25.2976"/><circle class="sym" cx="0" cy="0" r="3"/><text class="lab lft" transform="translate(-3 -6)">8</text></g><path class="edge" d="M 0 0 V -8.65085 H 24.5536"/><circle class="sym" cx="0" cy="0" r="3"/><text class="lab lft" transform="translate(-3 -6)">10</text></g><circle class="sym" cx="0" cy="0" r="3"/><text class="lab" transform="translate(0 -10)">11</text></g></g></g></g><g class="axis"><line stroke="black" x1="20" x2="580" y1="180" y2="180"/><line stroke="black" x1="20" x2="20" y1="180" y2="185"/><g transform="translate(20, 200)"><text font-size="14" font-weight="bold" text-anchor="middle">0.00</text></g><line stroke="black" x1="119.746" x2="119.746" y1="180" y2="185"/><g transform="translate(119.746, 200)"><text font-size="14" font-weight="bold" text-anchor="middle">0.18</text></g><line stroke="black" x1="188.839" x2="188.839" y1="180" y2="185"/><g transform="translate(188.839, 200)"><text font-size="14" font-weight="bold" text-anchor="middle">0.30</text></g><line stroke="black" x1="580.0" x2="580.0" y1="180" y2="185"/><g transform="translate(580.0, 200)"><text font-size="14" font-weight="bold" text-anchor="middle">1.00</text></g></g></g></svg>