<svg xmlns="http://www.w3.org/2000/svg" xmlns:ev="http://www.w3.org/2001/xml-events" xmlns:xlink="http://www.w3.org/1999/xlink" baseProfile="full" height="200" version="1.1" width="800"><defs><style type="text/css"><![CDATA[.axis {font-weight: bold}.tree, .axis {font-size: 14px; text-anchor:middle}.edge {stroke: black; fill: none}.node > .sym {fill: black; stroke: none}.tree text {dominant-baseline: middle}.tree .lab.lft {text-anchor: end}.tree .lab.rgt {text-anchor: start}.mut {fill: red; font-style: italic}]]></style></defs><g class="tree-sequence"><g class="background"><polygon fill="#F1F1F1" points="20,185 20,180 20,160 20,0 210.0,0 210.0,160 172.0,180 172.0,185"/><polygon fill="#F1F1F1" points="324.0,185 324.0,180 400.0,160 400.0,0 590.0,0 590.0,160 552.0,180 552.0,185"/></g><g class="trees"><g class="treebox t0" transform="translate(20 30)"><g class="tree t0"><g class="node n14 p0 root" transform="translate(75.2679 30.0)"><g class="a14 node n6 p0" transform="translate(-28.8393 78.8187)"><g class="a6 i0 leaf node n0 p0 sample" transform="translate(-12.1429 1.18133)"><path class="edge" d="M 0 0 V -1.18133 H 12.1429"/><circle class="sym" cx="0" cy="0" r="3"/><text class="lab" transform="translate(0 12)">0</text></g><g class="a6 i2 leaf node n5 p0 sample" transform="translate(12.1429 1.18133)"><path class="edge" d="M 0 0 V -1.18133 H -12.1429"/><circle class="sym" cx="0" cy="0" r="3"/><text class="lab" transform="translate(0 12)">5</text></g><path class="edge" d="M 0 0 V -78.8187 H 28.8393"/><circle class="sym" cx="0" cy="0" r="3"/><text class="lab lft" transform="translate(-3 -6)">6</text></g><g class="a14 node n9 p0" transform="translate(28.8393 57.1514)"><g class="a9 i0 leaf node n1 p0 sample" transform="translate(-21.25 22.8486)"><path class="edge" d="M 0 0 V -22.8486 H 21.25"/><circle class="sym" cx="0" cy="0" r="3"/><text class="lab" transform="translate(0 12)">1</text></g><g class="a9 node n8 p0" transform="translate(21.25 8.41891)"><g class="a8 i1 leaf node n2 p0 sample" transform="translate(-18.2143 14.4297)"><path class="edge" d="M 0 0 V -14.4297 H 18.2143"/><circle class="sym" cx="0" cy="0" r="3"/><text class="lab" transform="translate(0 12)">2</text></g><g class="a8 node n7 p0" transform="translate(18.2143 2.42622)"><g class="a7 i1 leaf node n3 p0 sample" transform="translate(-12.1429 12.0035)"><path class="edge" d="M 0 0 V -12.0035 H 12.1429"/><circle class="sym" cx="0" cy="0" r="3"/><text class="lab" transform="translate(0 12)">3</text></g><g class="a7 i2 leaf node n4 p0 sample" transform="translate(12.1429 12.0035)"><path class="edge" d="M 0 0 V -12.0035 H -12.1429"/><circle class="sym" cx="0" cy="0" r="3"/><text class="lab" transform="translate(0 12)">4</text></g><path class="edge" d="M 0 0 V -2.42622 H -18.2143"/><circle class="sym" cx="0" cy="0" r="3"/><text class="lab rgt" transform="translate(3 -6)">7</text></g><path class="edge" d="M 0 0 V -8.41891 H -21.25"/><circle class="sym" cx="0" cy="0" r="3"/><text class="lab rgt" transform="translate(3 -6)">8</text></g><path class="edge" d="M 0 0 V -57.1514 H -28.8393"/><circle class="sym" cx="0" cy="0" r="3"/><text class="lab rgt" transform="translate(3 -6)">9</text></g><circle class="sym" cx="0" cy="0" r="3"/><text class="lab" transform="translate(0 -10)">14</text></g></g></g><g class="treebox t1" transform="translate(210.0 30)"><g class="tree t1"><g class="node n14 p0 root" transform="translate(87.4107 30.0)"><g class="a14 node n6 p0" transform="translate(-40.9821 78.8187)"><g class="a6 i0 leaf node n0 p0 sample" transform="translate(-12.1429 1.18133)"><path class="edge" d="M 0 0 V -1.18133 H 12.1429"/><circle class="sym" cx="0" cy="0" r="3"/><text class="lab" transform="translate(0 12)">0</text></g><g class="a6 i2 leaf node n5 p0 sample" transform="translate(12.1429 1.18133)"><path class="edge" d="M 0 0 V -1.18133 H -12.1429"/><circle class="sym" cx="0" cy="0" r="3"/><text class="lab" transform="translate(0 12)">5</text></g><path class="edge" d="M 0 0 V -78.8187 H 40.9821"/><circle class="sym" cx="0" cy="0" r="3"/><text class="lab lft" transform="translate(-3 -6)">6</text></g><g class="a14 node n13 p0" transform="translate(40.9821 10.694)"><g class="a13 i1 leaf node n3 p0 sample" transform="translate(27.3214 69.306)"><path class="edge" d="M 0 0 V -69.306 H -27.3214"/><circle class="sym" cx="0" cy="0" r="3"/><text class="lab" transform="translate(0 12)">3</text></g><g class="a13 node n9 p0" transform="translate(-27.3214 46.4574)"><g class="a9 i0 leaf node n1 p0 sample" transform="translate(-18.2143 22.8486)"><path class="edge" d="M 0 0 V -22.8486 H 18.2143"/><circle class="sym" cx="0" cy="0" r="3"/><text class="lab" transform="translate(0 12)">1</text></g><g class="a9 node n8 p0" transform="translate(18.2143 8.41891)"><g class="a8 i1 leaf node n2 p0 sample" transform="translate(-12.1429 14.4297)"><path class="edge" d="M 0 0 V -14.4297 H 12.1429"/><circle class="sym" cx="0" cy="0" r="3"/><text class="lab" transform="translate(0 12)">2</text></g><g class="a8 i2 leaf node n4 p0 sample" transform="translate(12.1429 14.4297)"><path class="edge" d="M 0 0 V -14.4297 H -12.1429"/><circle class="sym" cx="0" cy="0" r="3"/><text class="lab" transform="translate(0 12)">4</text></g><path class="edge" d="M 0 0 V -8.41891 H -18.2143"/><circle class="sym" cx="0" cy="0" r="3"/><text class="lab rgt" transform="translate(3 -6)">8</text></g><path class="edge" d="M 0 0 V -46.4574 H 27.3214"/><circle class="sym" cx="0" cy="0" r="3"/><text class="lab lft" transform="translate(-3 -6)">9</text></g><path class="edge" d="M 0 0 V -10.694 H -40.9821"/><circle class="sym" cx="0" cy="0" r="3"/><text class="lab rgt" transform="translate(3 -6)">13</text></g><circle class="sym" cx="0" cy="0" r="3"/><text class="lab" transform="translate(0 -10)">14</text></g></g></g><g class="treebox t2" transform="translate(400.0 30)"><g class="tree t2"><g class="node n14 p0 root" transform="translate(101.071 30.0)"><g class="a14 node n13 p0" transform="translate(36.4286 10.694)"><g class="a13 i1 leaf node n3 p0 sample" transform="translate(18.2143 69.306)"><path class="edge" d="M 0 0 V -69.306 H -18.2143"/><circle class="sym" cx="0" cy="0" r="3"/><text class="lab" transform="translate(0 12)">3</text></g><g class="a13 node n8 p0" transform="translate(-18.2143 54.8763)"><g class="a8 i1 leaf node n2 p0 sample" transform="translate(-12.1429 14.4297)"><path class="edge" d="M 0 0 V -14.4297 H 12.1429"/><circle class="sym" cx="0" cy="0" r="3"/><text class="lab" transform="translate(0 12)">2</text></g><g class="a8 i2 leaf node n4 p0 sample" transform="translate(12.1429 14.4297)"><path class="edge" d="M 0 0 V -14.4297 H -12.1429"/><circle class="sym" cx="0" cy="0" r="3"/><text class="lab" transform="translate(0 12)">4</text></g><path class="edge" d="M 0 0 V -54.8763 H 18.2143"/><circle class="sym" cx="0" cy="0" r="3"/><text class="lab lft" transform="translate(-3 -6)">8</text></g><path class="edge" d="M 0 0 V -10.694 H -36.4286"/><circle class="sym" cx="0" cy="0" r="3"/><text class="lab rgt" transform="translate(3 -6)">13</text></g><g class="a14 node n10 p0" transform="translate(-36.4286 50.9118)"><g class="a10 i0 leaf node n1 p0 sample" transform="translate(18.2143 29.0882)"><path class="edge" d="M 0 0 V -29.0882 H -18.2143"/><circle class="sym" cx="0" cy="0" r="3"/><text class="lab" transform="translate(0 12)">1</text></g><g class="a10 node n6 p0" transform="translate(-18.2143 27.9068)"><g class="a6 i0 leaf node n0 p0 sample" transform="translate(-12.1429 1.18133)"><path class="edge" d="M 0 0 V -1.18133 H 12.1429"/><circle class="sym" cx="0" cy="0" r="3"/><text class="lab" transform="translate(0 12)">0</text></g><g class="a6 i2 leaf node n5 p0 sample" transform="translate(12.1429 1.18133)"><path class="edge" d="M 0 0 V -1.18133 H -12.1429"/><circle class="sym" cx="0" cy="0" r="3"/><text class="lab" transform="translate(0 12)">5</text></g><path class="edge" d="M 0 0 V -27.9068 H 18.2143"/><circle class="sym" cx="0" cy="0" r="3"/><text class="lab lft" transform="translate(-3 -6)">6</text></g><path class="edge" d="M 0 0 V -50.9118 H 36.4286"/><circle class="sym" cx="0" cy="0" r="3"/><text class="lab lft" transform="translate(-3 -6)">10</text></g><circle class="sym" cx="0" cy="0" r="3"/><text class="lab" transform="translate(0 -10)">14</text></g></g></g><g class="treebox t3" transform="translate(590.0 30)"><g class="tree t3"><g class="node n13 p0 root" transform="translate(95.0 40.694)"><g class="a13 node n11 p0" transform="translate(30.3571 12.9815)"><g class="a11 i0 leaf node n1 p0 sample" transform="translate(-18.2143 56.3245)"><path class="edge" d="M 0 0 V -56.3245 H 18.2143"/><circle class="sym" cx="0" cy="0" r="3"/><text class="lab" transform="translate(0 12)">1</text></g><g class="a11 node n8 p0" transform="translate(18.2143 41.8948)"><g class="a8 i1 leaf node n2 p0 sample" transform="translate(-12.1429 14.4297)"><path class="edge" d="M 0 0 V -14.4297 H 12.1429"/><circle class="sym" cx="0" cy="0" r="3"/><text class="lab" transform="translate(0 12)">2</text></g><g class="a8 i2 leaf node n4 p0 sample" transform="translate(12.1429 14.4297)"><path class="edge" d="M 0 0 V -14.4297 H -12.1429"/><circle class="sym" cx="0" cy="0" r="3"/><text class="lab" transform="translate(0 12)">4</text></g><path class="edge" d="M 0 0 V -41.8948 H -18.2143"/><circle class="sym" cx="0" cy="0" r="3"/><text class="lab rgt" transform="translate(3 -6)">8</text></g><path class="edge" d="M 0 0 V -12.9815 H -30.3571"/><circle class="sym" cx="0" cy="0" r="3"/><text class="lab rgt" transform="translate(3 -6)">11</text></g><g class="a13 node n12 p0" transform="translate(-30.3571 10.1709)"><g class="a12 i1 leaf node n3 p0 sample" transform="translate(18.2143 59.1352)"><path class="edge" d="M 0 0 V -59.1352 H -18.2143"/><circle class="sym" cx="0" cy="0" r="3"/><text class="lab" transform="translate(0 12)">3</text></g><g class="a12 node n6 p0" transform="translate(-18.2143 57.9538)"><g class="a6 i0 leaf node n0 p0 sample" transform="translate(-12.1429 1.18133)"><path class="edge" d="M 0 0 V -1.18133 H 12.1429"/><circle class="sym" cx="0" cy="0" r="3"/><text class="lab" transform="translate(0 12)">0</text></g><g class="a6 i2 leaf node n5 p0 sample" transform="translate(12.1429 1.18133)"><path class="edge" d="M 0 0 V -1.18133 H -12.1429"/><circle class="sym" cx="0" cy="0" r="3"/><text class="lab" transform="translate(0 12)">5</text></g><path class="edge" d="M 0 0 V -57.9538 H 18.2143"/><circle class="sym" cx="0" cy="0" r="3"/><text class="lab lft" transform="translate(-3 -6)">6</text></g><path class="edge" d="M 0 0 V -10.1709 H 30.3571"/><circle class="sym" cx="0" cy="0" r="3"/><text class="lab lft" transform="translate(-3 -6)">12</text></g><circle class="sym" cx="0" cy="0" r="3"/><text class="lab" transform="translate(0 -10)">13</text></g></g></g></g><g class="axis"><line stroke="black" x1="20" x2="780" y1="180" y2="180"/><line stroke="black" x1="20" x2="20" y1="180" y2="185"/><g transform="translate(20, 200)"><text font-size="14" font-weight="bold" text-anchor="middle">0</text></g><line stroke="black" x1="172.0" x2="172.0" y1="180" y2="185"/><g transform="translate(172.0, 200)"><text font-size="14" font-weight="bold" text-anchor="middle">2</text></g><line stroke="black" x1="324.0" x2="324.0" y1="180" y2="185"/><g transform="translate(324.0, 200)"><text font-size="14" font-weight="bold" text-anchor="middle">4</text></g><line stroke="black" x1="552.0" x2="552.0" y1="180" y2="185"/><g transform="translate(552.0, 200)"><text font-size="14" font-weight="bold" text-anchor="middle">7</text></g><line stroke="black" x1="780.0" x2="780.0" y1="180" y2="185"/><g transform="translate(780.0, 200)"><text font-size="14" font-weight="bold" text-anchor="middle">10</text></g></g></g></svg>