<svg xmlns="http://www.w3.org/2000/svg" xmlns:ev="http://www.w3.org/2001/xml-events" xmlns:xlink="http://www.w3.org/1999/xlink" baseProfile="full" height="200" version="1.1" width="800"><defs><style type="text/css"><![CDATA[.axis {font-weight: bold}.tree, .axis {font-size: 14px; text-anchor:middle}.edge {stroke: black; fill: none}.node > .sym {fill: black; stroke: none}.tree text {dominant-baseline: middle}.tree .lab.lft {text-anchor: end}.tree .lab.rgt {text-anchor: start}.mut {fill: red; font-style: italic}]]></style></defs><g class="tree-sequence"><g class="background"><polygon fill="#F1F1F1" points="20,185 20,180 20,160 20,0 210.0,0 210.0,160 220.044,180 220.044,185"/><polygon fill="#F1F1F1" points="535.133,185 535.133,180 400.0,160 400.0,0 590.0,0 590.0,160 733.381,180 733.381,185"/></g><g class="trees"><g class="treebox t0" transform="translate(20 30)"><g class="tree t0"><g class="node n14 p1 root" transform="translate(95.0 58.8527)"><g class="a14 node n9 p0" transform="translate(34.0 2.40683)"><g class="a9 node n5 p1" transform="translate(0.0 12.0954)"><g class="a5 leaf node n1 p0 sample" transform="translate(-17.0 36.6451)"><path class="edge" d="M 0 0 V -36.6451 H 17.0"/><circle class="sym" cx="0" cy="0" r="3"/><text class="lab" transform="translate(0 12)">1</text></g><g class="a5 leaf node n3 p1 sample" transform="translate(17.0 36.6451)"><path class="edge" d="M 0 0 V -36.6451 H -17.0"/><circle class="sym" cx="0" cy="0" r="3"/><text class="lab" transform="translate(0 12)">3</text></g><path class="edge" d="M 0 0 V -12.0954 H 0.0"/><circle class="sym" cx="0" cy="0" r="3"/><text class="lab lft" transform="translate(-3 -6)">5</text></g><path class="edge" d="M 0 0 V -2.40683 H -34.0"/><circle class="sym" cx="0" cy="0" r="3"/><text class="lab rgt" transform="translate(3 -6)">9</text></g><g class="a14 node n12 p1" transform="translate(-34.0 2.40683)"><g class="a12 node n4 p1" transform="translate(0.0 25.8316)"><g class="a4 leaf node n0 p0 sample" transform="translate(-17.0 22.9089)"><path class="edge" d="M 0 0 V -22.9089 H 17.0"/><circle class="sym" cx="0" cy="0" r="3"/><text class="lab" transform="translate(0 12)">0</text></g><g class="a4 leaf node n2 p1 sample" transform="translate(17.0 22.9089)"><path class="edge" d="M 0 0 V -22.9089 H -17.0"/><circle class="sym" cx="0" cy="0" r="3"/><text class="lab" transform="translate(0 12)">2</text></g><path class="edge" d="M 0 0 V -25.8316 H 0.0"/><circle class="sym" cx="0" cy="0" r="3"/><text class="lab lft" transform="translate(-3 -6)">4</text></g><path class="edge" d="M 0 0 V -2.40683 H 34.0"/><circle class="sym" cx="0" cy="0" r="3"/><text class="lab lft" transform="translate(-3 -6)">12</text></g><circle class="sym" cx="0" cy="0" r="3"/><text class="lab" transform="translate(0 -10)">14</text></g></g></g><g class="treebox t1" transform="translate(210.0 30)"><g class="tree t1"><g class="node n14 p1 root" transform="translate(116.25 58.8527)"><g class="a14 node n10 p0" transform="translate(29.75 2.40683)"><g class="a10 leaf node n3 p1 sample" transform="translate(0.0 48.7405)"><path class="edge" d="M 0 0 V -48.7405 H 0.0"/><circle class="sym" cx="0" cy="0" r="3"/><text class="lab" transform="translate(0 12)">3</text></g><path class="edge" d="M 0 0 V -2.40683 H -29.75"/><circle class="sym" cx="0" cy="0" r="3"/><text class="lab rgt" transform="translate(3 -6)">10</text></g><g class="a14 node n13 p1" transform="translate(-29.75 2.40683)"><g class="a13 node n6 p0" transform="translate(0.0 7.45749)"><g class="a6 leaf node n1 p0 sample" transform="translate(25.5 41.283)"><path class="edge" d="M 0 0 V -41.283 H -25.5"/><circle class="sym" cx="0" cy="0" r="3"/><text class="lab" transform="translate(0 12)">1</text></g><g class="a6 node n4 p1" transform="translate(-25.5 18.3741)"><g class="a4 leaf node n0 p0 sample" transform="translate(-17.0 22.9089)"><path class="edge" d="M 0 0 V -22.9089 H 17.0"/><circle class="sym" cx="0" cy="0" r="3"/><text class="lab" transform="translate(0 12)">0</text></g><g class="a4 leaf node n2 p1 sample" transform="translate(17.0 22.9089)"><path class="edge" d="M 0 0 V -22.9089 H -17.0"/><circle class="sym" cx="0" cy="0" r="3"/><text class="lab" transform="translate(0 12)">2</text></g><path class="edge" d="M 0 0 V -18.3741 H 25.5"/><circle class="sym" cx="0" cy="0" r="3"/><text class="lab lft" transform="translate(-3 -6)">4</text></g><path class="edge" d="M 0 0 V -7.45749 H 0.0"/><circle class="sym" cx="0" cy="0" r="3"/><text class="lab lft" transform="translate(-3 -6)">6</text></g><path class="edge" d="M 0 0 V -2.40683 H 29.75"/><circle class="sym" cx="0" cy="0" r="3"/><text class="lab lft" transform="translate(-3 -6)">13</text></g><circle class="sym" cx="0" cy="0" r="3"/><text class="lab" transform="translate(0 -10)">14</text></g></g></g><g class="treebox t2" transform="translate(400.0 30)"><g class="tree t2"><g class="node n14 p1 root" transform="translate(95.0 58.8527)"><g class="a14 node n13 p1" transform="translate(-34.0 2.40683)"><g class="a13 node n6 p0" transform="translate(0.0 7.45749)"><g class="a6 leaf node n1 p0 sample" transform="translate(17.0 41.283)"><path class="edge" d="M 0 0 V -41.283 H -17.0"/><circle class="sym" cx="0" cy="0" r="3"/><text class="lab" transform="translate(0 12)">1</text></g><g class="a6 leaf node n0 p0 sample" transform="translate(-17.0 41.283)"><path class="edge" d="M 0 0 V -41.283 H 17.0"/><circle class="sym" cx="0" cy="0" r="3"/><text class="lab" transform="translate(0 12)">0</text></g><path class="edge" d="M 0 0 V -7.45749 H 0.0"/><circle class="sym" cx="0" cy="0" r="3"/><text class="lab lft" transform="translate(-3 -6)">6</text></g><path class="edge" d="M 0 0 V -2.40683 H 34.0"/><circle class="sym" cx="0" cy="0" r="3"/><text class="lab lft" transform="translate(-3 -6)">13</text></g><g class="a14 node n11 p0" transform="translate(34.0 2.40683)"><g class="a11 node n7 p1" transform="translate(0.0 3.91056)"><g class="a7 leaf node n2 p1 sample" transform="translate(-17.0 44.8299)"><path class="edge" d="M 0 0 V -44.8299 H 17.0"/><circle class="sym" cx="0" cy="0" r="3"/><text class="lab" transform="translate(0 12)">2</text></g><g class="a7 leaf node n3 p1 sample" transform="translate(17.0 44.8299)"><path class="edge" d="M 0 0 V -44.8299 H -17.0"/><circle class="sym" cx="0" cy="0" r="3"/><text class="lab" transform="translate(0 12)">3</text></g><path class="edge" d="M 0 0 V -3.91056 H 0.0"/><circle class="sym" cx="0" cy="0" r="3"/><text class="lab lft" transform="translate(-3 -6)">7</text></g><path class="edge" d="M 0 0 V -2.40683 H -34.0"/><circle class="sym" cx="0" cy="0" r="3"/><text class="lab rgt" transform="translate(3 -6)">11</text></g><circle class="sym" cx="0" cy="0" r="3"/><text class="lab" transform="translate(0 -10)">14</text></g></g></g><g class="treebox t3" transform="translate(590.0 30)"><g class="tree t3"><g class="node n15 p0 root" transform="translate(95.0 30.0)"><g class="a15 node n8 p0" transform="translate(-34.0 31.2595)"><g class="a8 node n6 p0" transform="translate(0.0 7.45749)"><g class="a6 leaf node n1 p0 sample" transform="translate(17.0 41.283)"><path class="edge" d="M 0 0 V -41.283 H -17.0"/><circle class="sym" cx="0" cy="0" r="3"/><text class="lab" transform="translate(0 12)">1</text></g><g class="a6 leaf node n0 p0 sample" transform="translate(-17.0 41.283)"><path class="edge" d="M 0 0 V -41.283 H 17.0"/><circle class="sym" cx="0" cy="0" r="3"/><text class="lab" transform="translate(0 12)">0</text></g><path class="edge" d="M 0 0 V -7.45749 H 0.0"/><circle class="sym" cx="0" cy="0" r="3"/><text class="lab lft" transform="translate(-3 -6)">6</text></g><path class="edge" d="M 0 0 V -31.2595 H 34.0"/><circle class="sym" cx="0" cy="0" r="3"/><text class="lab lft" transform="translate(-3 -6)">8</text></g><g class="a15 node n11 p0" transform="translate(34.0 31.2595)"><g class="a11 node n7 p1" transform="translate(0.0 3.91056)"><g class="a7 leaf node n2 p1 sample" transform="translate(-17.0 44.8299)"><path class="edge" d="M 0 0 V -44.8299 H 17.0"/><circle class="sym" cx="0" cy="0" r="3"/><text class="lab" transform="translate(0 12)">2</text></g><g class="a7 leaf node n3 p1 sample" transform="translate(17.0 44.8299)"><path class="edge" d="M 0 0 V -44.8299 H -17.0"/><circle class="sym" cx="0" cy="0" r="3"/><text class="lab" transform="translate(0 12)">3</text></g><path class="edge" d="M 0 0 V -3.91056 H 0.0"/><circle class="sym" cx="0" cy="0" r="3"/><text class="lab lft" transform="translate(-3 -6)">7</text></g><path class="edge" d="M 0 0 V -31.2595 H -34.0"/><circle class="sym" cx="0" cy="0" r="3"/><text class="lab rgt" transform="translate(3 -6)">11</text></g><circle class="sym" cx="0" cy="0" r="3"/><text class="lab" transform="translate(0 -10)">15</text></g></g></g></g><g class="axis"><line stroke="black" x1="20" x2="780" y1="180" y2="180"/><line stroke="black" x1="20" x2="20" y1="180" y2="185"/><g transform="translate(20, 200)"><text font-size="14" font-weight="bold" text-anchor="middle">0.00</text></g><line stroke="black" x1="220.044" x2="220.044" y1="180" y2="185"/><g transform="translate(220.044, 200)"><text font-size="14" font-weight="bold" text-anchor="middle">263.22</text></g><line stroke="black" x1="535.133" x2="535.133" y1="180" y2="185"/><g transform="translate(535.133, 200)"><text font-size="14" font-weight="bold" text-anchor="middle">677.81</text></g><line stroke="black" x1="733.381" x2="733.381" y1="180" y2="185"/><g transform="translate(733.381, 200)"><text font-size="14" font-weight="bold" text-anchor="middle">938.66</text></g><line stroke="black" x1="780.0" x2="780.0" y1="180" y2="185"/><g transform="translate(780.0, 200)"><text font-size="14" font-weight="bold" text-anchor="middle">1000.00</text></g></g></g></svg>