<svg xmlns="http://www.w3.org/2000/svg" xmlns:ev="http://www.w3.org/2001/xml-events" xmlns:xlink="http://www.w3.org/1999/xlink" baseProfile="full" height="200" version="1.1" width="200"><defs><style type="text/css"><![CDATA[.axis {font-weight: bold}.tree, .axis {font-size: 14px; text-anchor:middle}.edge {stroke: black; fill: none}.node > .sym {fill: black; stroke: none}.tree text {dominant-baseline: middle}.tree .lab.lft {text-anchor: end}.tree .lab.rgt {text-anchor: start}.mut {fill: red; font-style: italic}]]></style></defs><g class="tree-sequence"><g class="background"><polygon fill="#F1F1F1" points="20,185 20,180 20,160 20,0 180.0,0 180.0,160 180.0,180 180.0,185"/></g><g class="trees"><g class="treebox t0" transform="translate(20 30)"><g class="tree t0"><g class="node n10 p0 root" transform="translate(70.625 30.0)"><g class="a10 i0 leaf node n0 p0 sample" transform="translate(-40.625 80.0)"><path class="edge" d="M 0 0 V -80.0 H 40.625"/><circle class="sym" cx="0" cy="0" r="3"/><text class="lab" transform="translate(0 12)">0</text></g><g class="a10 node n9 p0" transform="translate(40.625 66.2821)"><g class="a9 i2 leaf node n4 p0 sample" transform="translate(18.75 13.7179)"><path class="edge" d="M 0 0 V -13.7179 H -18.75"/><circle class="sym" cx="0" cy="0" r="3"/><text class="lab" transform="translate(0 12)">4</text></g><g class="a9 node n8 p0" transform="translate(-18.75 6.06151)"><g class="a8 i2 leaf node n5 p0 sample" transform="translate(17.5 7.65643)"><path class="edge" d="M 0 0 V -7.65643 H -17.5"/><circle class="sym" cx="0" cy="0" r="3"/><text class="lab" transform="translate(0 12)">5</text></g><g class="a8 node n7 p0" transform="translate(-17.5 7.27663)"><g class="a7 i1 leaf node n2 p0 sample" transform="translate(15.0 0.379801)"><path class="edge" d="M 0 0 V -0.379801 H -15.0"/><circle class="sym" cx="0" cy="0" r="3"/><text class="lab" transform="translate(0 12)">2</text></g><g class="a7 node n6 p0" transform="translate(-15.0 0.274091)"><g class="a6 i0 leaf node n1 p0 sample" transform="translate(-10.0 0.10571)"><path class="edge" d="M 0 0 V -0.10571 H 10.0"/><circle class="sym" cx="0" cy="0" r="3"/><text class="lab" transform="translate(0 12)">1</text></g><g class="a6 i1 leaf node n3 p0 sample" transform="translate(10.0 0.10571)"><path class="edge" d="M 0 0 V -0.10571 H -10.0"/><circle class="sym" cx="0" cy="0" r="3"/><text class="lab" transform="translate(0 12)">3</text></g><path class="edge" d="M 0 0 V -0.274091 H 15.0"/><circle class="sym" cx="0" cy="0" r="3"/><text class="lab lft" transform="translate(-3 -6)">6</text></g><path class="edge" d="M 0 0 V -7.27663 H 17.5"/><circle class="sym" cx="0" cy="0" r="3"/><text class="lab lft" transform="translate(-3 -6)">7</text></g><path class="edge" d="M 0 0 V -6.06151 H 18.75"/><circle class="sym" cx="0" cy="0" r="3"/><text class="lab lft" transform="translate(-3 -6)">8</text></g><path class="edge" d="M 0 0 V -66.2821 H -40.625"/><circle class="sym" cx="0" cy="0" r="3"/><text class="lab rgt" transform="translate(3 -6)">9</text></g><circle class="sym" cx="0" cy="0" r="3"/><text class="lab" transform="translate(0 -10)">10</text></g></g></g></g><g class="axis"><line stroke="black" x1="20" x2="180" y1="180" y2="180"/><line stroke="black" x1="20" x2="20" y1="180" y2="185"/><g transform="translate(20, 200)"><text font-size="14" font-weight="bold" text-anchor="middle">0</text></g><line stroke="black" x1="180.0" x2="180.0" y1="180" y2="185"/><g transform="translate(180.0, 200)"><text font-size="14" font-weight="bold" text-anchor="middle">1</text></g></g></g></svg>