<svg xmlns="http://www.w3.org/2000/svg" xmlns:ev="http://www.w3.org/2001/xml-events" xmlns:xlink="http://www.w3.org/1999/xlink" baseProfile="full" height="200" version="1.1" width="200"><defs><style type="text/css"><![CDATA[.axis {font-weight: bold}.tree, .axis {font-size: 14px; text-anchor:middle}.edge {stroke: black; fill: none}.node > .sym {fill: black; stroke: none}.tree text {dominant-baseline: middle}.tree .lab.lft {text-anchor: end}.tree .lab.rgt {text-anchor: start}.mut {fill: red; font-style: italic}]]></style></defs><g class="tree-sequence"><g class="background"><polygon fill="#F1F1F1" points="20,185 20,180 20,160 20,0 180.0,0 180.0,160 180.0,180 180.0,185"/></g><g class="trees"><g class="treebox t0" transform="translate(20 30)"><g class="tree t0"><g class="node n14 p0 root" transform="translate(102.847 30.0)"><g class="a14 i3 leaf node n6 p0 sample" transform="translate(31.5972 80.0)"><path class="edge" d="M 0 0 V -80.0 H -31.5972"/><circle class="sym" cx="0" cy="0" r="3"/><text class="lab" transform="translate(0 12)">6</text></g><g class="a14 node n13 p0" transform="translate(-31.5972 9.0053)"><g class="a13 node n10 p0" transform="translate(34.0278 46.6238)"><g class="a10 i2 leaf node n5 p0 sample" transform="translate(13.6111 24.3709)"><path class="edge" d="M 0 0 V -24.3709 H -13.6111"/><circle class="sym" cx="0" cy="0" r="3"/><text class="lab" transform="translate(0 12)">5</text></g><g class="a10 node n9 p0" transform="translate(-13.6111 9.84918)"><g class="a9 i3 leaf node n7 p0 sample" transform="translate(11.6667 14.5217)"><path class="edge" d="M 0 0 V -14.5217 H -11.6667"/><circle class="sym" cx="0" cy="0" r="3"/><text class="lab" transform="translate(0 12)">7</text></g><g class="a9 node n8 p0" transform="translate(-11.6667 5.10644)"><g class="a8 i0 leaf node n1 p0 sample" transform="translate(-7.77778 9.41529)"><path class="edge" d="M 0 0 V -9.41529 H 7.77778"/><circle class="sym" cx="0" cy="0" r="3"/><text class="lab" transform="translate(0 12)">1</text></g><g class="a8 i1 leaf node n3 p0 sample" transform="translate(7.77778 9.41529)"><path class="edge" d="M 0 0 V -9.41529 H -7.77778"/><circle class="sym" cx="0" cy="0" r="3"/><text class="lab" transform="translate(0 12)">3</text></g><path class="edge" d="M 0 0 V -5.10644 H 11.6667"/><circle class="sym" cx="0" cy="0" r="3"/><text class="lab lft" transform="translate(-3 -6)">8</text></g><path class="edge" d="M 0 0 V -9.84918 H 13.6111"/><circle class="sym" cx="0" cy="0" r="3"/><text class="lab lft" transform="translate(-3 -6)">9</text></g><path class="edge" d="M 0 0 V -46.6238 H -34.0278"/><circle class="sym" cx="0" cy="0" r="3"/><text class="lab rgt" transform="translate(3 -6)">10</text></g><g class="a13 node n12 p0" transform="translate(-34.0278 6.55121)"><g class="a12 i0 leaf node n0 p0 sample" transform="translate(-11.6667 64.4435)"><path class="edge" d="M 0 0 V -64.4435 H 11.6667"/><circle class="sym" cx="0" cy="0" r="3"/><text class="lab" transform="translate(0 12)">0</text></g><g class="a12 node n11 p0" transform="translate(11.6667 2.69081)"><g class="a11 i1 leaf node n2 p0 sample" transform="translate(-7.77778 61.7527)"><path class="edge" d="M 0 0 V -61.7527 H 7.77778"/><circle class="sym" cx="0" cy="0" r="3"/><text class="lab" transform="translate(0 12)">2</text></g><g class="a11 i2 leaf node n4 p0 sample" transform="translate(7.77778 61.7527)"><path class="edge" d="M 0 0 V -61.7527 H -7.77778"/><circle class="sym" cx="0" cy="0" r="3"/><text class="lab" transform="translate(0 12)">4</text></g><path class="edge" d="M 0 0 V -2.69081 H -11.6667"/><circle class="sym" cx="0" cy="0" r="3"/><text class="lab rgt" transform="translate(3 -6)">11</text></g><path class="edge" d="M 0 0 V -6.55121 H 34.0278"/><circle class="sym" cx="0" cy="0" r="3"/><text class="lab lft" transform="translate(-3 -6)">12</text></g><path class="edge" d="M 0 0 V -9.0053 H 31.5972"/><circle class="sym" cx="0" cy="0" r="3"/><text class="lab lft" transform="translate(-3 -6)">13</text></g><circle class="sym" cx="0" cy="0" r="3"/><text class="lab" transform="translate(0 -10)">14</text></g></g></g></g><g class="axis"><line stroke="black" x1="20" x2="180" y1="180" y2="180"/><line stroke="black" x1="20" x2="20" y1="180" y2="185"/><g transform="translate(20, 200)"><text font-size="14" font-weight="bold" text-anchor="middle">0</text></g><line stroke="black" x1="180.0" x2="180.0" y1="180" y2="185"/><g transform="translate(180.0, 200)"><text font-size="14" font-weight="bold" text-anchor="middle">1</text></g></g></g></svg>