<svg xmlns="http://www.w3.org/2000/svg" xmlns:ev="http://www.w3.org/2001/xml-events" xmlns:xlink="http://www.w3.org/1999/xlink" baseProfile="full" height="200" version="1.1" width="200"><defs><style type="text/css"><![CDATA[.axis {font-weight: bold}.tree, .axis {font-size: 14px; text-anchor:middle}.edge {stroke: black; fill: none}.node > .sym {fill: black; stroke: none}.tree text {dominant-baseline: middle}.tree .lab.lft {text-anchor: end}.tree .lab.rgt {text-anchor: start}.mut {fill: red; font-style: italic}]]></style></defs><g class="tree-sequence"><g class="background"><polygon fill="#F1F1F1" points="20,185 20,180 20,160 20,0 180.0,0 180.0,160 180.0,180 180.0,185"/></g><g class="trees"><g class="treebox t0" transform="translate(20 30)"><g class="tree t0"><g class="node n10 p0 root" transform="translate(76.25 30.0)"><g class="a10 node n8 p0" transform="translate(36.25 75.3038)"><g class="a8 i1 leaf node n2 p0 sample" transform="translate(17.5 4.69618)"><path class="edge" d="M 0 0 V -4.69618 H -17.5"/><circle class="sym" cx="0" cy="0" r="3"/><text class="lab" transform="translate(0 12)">2</text></g><g class="a8 node n7 p0" transform="translate(-17.5 4.20014)"><g class="a7 i1 leaf node n3 p0 sample" transform="translate(15.0 0.49604)"><path class="edge" d="M 0 0 V -0.49604 H -15.0"/><circle class="sym" cx="0" cy="0" r="3"/><text class="lab" transform="translate(0 12)">3</text></g><g class="a7 node n6 p0" transform="translate(-15.0 0.408455)"><g class="a6 i0 leaf node n1 p0 sample" transform="translate(-10.0 0.087585)"><path class="edge" d="M 0 0 V -0.087585 H 10.0"/><circle class="sym" cx="0" cy="0" r="3"/><text class="lab" transform="translate(0 12)">1</text></g><g class="a6 i2 leaf node n4 p0 sample" transform="translate(10.0 0.087585)"><path class="edge" d="M 0 0 V -0.087585 H -10.0"/><circle class="sym" cx="0" cy="0" r="3"/><text class="lab" transform="translate(0 12)">4</text></g><path class="edge" d="M 0 0 V -0.408455 H 15.0"/><circle class="sym" cx="0" cy="0" r="3"/><text class="lab lft" transform="translate(-3 -6)">6</text></g><path class="edge" d="M 0 0 V -4.20014 H 17.5"/><circle class="sym" cx="0" cy="0" r="3"/><text class="lab lft" transform="translate(-3 -6)">7</text></g><path class="edge" d="M 0 0 V -75.3038 H -36.25"/><circle class="sym" cx="0" cy="0" r="3"/><text class="lab rgt" transform="translate(3 -6)">8</text></g><g class="a10 node n9 p0" transform="translate(-36.25 70.9492)"><g class="a9 i0 leaf node n0 p0 sample" transform="translate(-10.0 9.05078)"><path class="edge" d="M 0 0 V -9.05078 H 10.0"/><circle class="sym" cx="0" cy="0" r="3"/><text class="lab" transform="translate(0 12)">0</text></g><g class="a9 i2 leaf node n5 p0 sample" transform="translate(10.0 9.05078)"><path class="edge" d="M 0 0 V -9.05078 H -10.0"/><circle class="sym" cx="0" cy="0" r="3"/><text class="lab" transform="translate(0 12)">5</text></g><path class="edge" d="M 0 0 V -70.9492 H 36.25"/><circle class="sym" cx="0" cy="0" r="3"/><text class="lab lft" transform="translate(-3 -6)">9</text></g><circle class="sym" cx="0" cy="0" r="3"/><text class="lab" transform="translate(0 -10)">10</text></g></g></g></g><g class="axis"><line stroke="black" x1="20" x2="180" y1="180" y2="180"/><line stroke="black" x1="20" x2="20" y1="180" y2="185"/><g transform="translate(20, 200)"><text font-size="14" font-weight="bold" text-anchor="middle">0</text></g><line stroke="black" x1="180.0" x2="180.0" y1="180" y2="185"/><g transform="translate(180.0, 200)"><text font-size="14" font-weight="bold" text-anchor="middle">1</text></g></g></g></svg>