<svg xmlns="http://www.w3.org/2000/svg" xmlns:ev="http://www.w3.org/2001/xml-events" xmlns:xlink="http://www.w3.org/1999/xlink" baseProfile="full" height="200" version="1.1" width="400"><defs><style type="text/css"><![CDATA[.axis {font-weight: bold}.tree, .axis {font-size: 14px; text-anchor:middle}.edge {stroke: black; fill: none}.node > .sym {fill: black; stroke: none}.tree text {dominant-baseline: middle}.tree .lab.lft {text-anchor: end}.tree .lab.rgt {text-anchor: start}.mut {fill: red; font-style: italic}]]></style></defs><g class="tree-sequence"><g class="background"><polygon fill="#F1F1F1" points="20,185 20,180 20,160 20,0 200.0,0 200.0,160 200.0,180 200.0,185"/></g><g class="trees"><g class="treebox t0" transform="translate(20 30)"><g class="tree t0"><g class="node n13 p0 root" transform="translate(101.429 30.0)"><g class="a13 node n8 p0" transform="translate(-34.2857 68.15)"><g class="a8 node n6 p0" transform="translate(-22.8571 8.31458)"><g class="a6 i0 leaf node n0 p0 sample" transform="translate(-11.4286 3.53538)"><path class="edge" d="M 0 0 V -3.53538 H 11.4286"/><circle class="sym" cx="0" cy="0" r="3"/><text class="lab" transform="translate(0 12)">0</text></g><g class="a6 i2 leaf node n5 p0 sample" transform="translate(11.4286 3.53538)"><path class="edge" d="M 0 0 V -3.53538 H -11.4286"/><circle class="sym" cx="0" cy="0" r="3"/><text class="lab" transform="translate(0 12)">5</text></g><path class="edge" d="M 0 0 V -8.31458 H 22.8571"/><circle class="sym" cx="0" cy="0" r="3"/><text class="lab lft" transform="translate(-3 -6)">6</text></g><g class="a8 node n7 p0" transform="translate(22.8571 3.27654)"><g class="a7 i1 leaf node n2 p0 sample" transform="translate(-11.4286 8.57342)"><path class="edge" d="M 0 0 V -8.57342 H 11.4286"/><circle class="sym" cx="0" cy="0" r="3"/><text class="lab" transform="translate(0 12)">2</text></g><g class="a7 i1 leaf node n3 p0 sample" transform="translate(11.4286 8.57342)"><path class="edge" d="M 0 0 V -8.57342 H -11.4286"/><circle class="sym" cx="0" cy="0" r="3"/><text class="lab" transform="translate(0 12)">3</text></g><path class="edge" d="M 0 0 V -3.27654 H -22.8571"/><circle class="sym" cx="0" cy="0" r="3"/><text class="lab rgt" transform="translate(3 -6)">7</text></g><path class="edge" d="M 0 0 V -68.15 H 34.2857"/><circle class="sym" cx="0" cy="0" r="3"/><text class="lab lft" transform="translate(-3 -6)">8</text></g><g class="a13 node n12 p0" transform="translate(34.2857 59.4961)"><g class="a12 i2 leaf node n4 p0 sample" transform="translate(11.4286 20.5039)"><path class="edge" d="M 0 0 V -20.5039 H -11.4286"/><circle class="sym" cx="0" cy="0" r="3"/><text class="lab" transform="translate(0 12)">4</text></g><g class="a12 node n11 p0" transform="translate(-11.4286 0.230903)"><g class="a11 node n9 p0" transform="translate(0.0 5.10159)"><g class="a9 i0 leaf node n1 p0 sample" transform="translate(0.0 15.1715)"><path class="edge" d="M 0 0 V -15.1715 H 0.0"/><circle class="sym" cx="0" cy="0" r="3"/><text class="lab" transform="translate(0 12)">1</text></g><path class="edge" d="M 0 0 V -5.10159 H 0.0"/><circle class="sym" cx="0" cy="0" r="3"/><text class="lab lft" transform="translate(-3 -6)">9</text></g><path class="edge" d="M 0 0 V -0.230903 H 11.4286"/><circle class="sym" cx="0" cy="0" r="3"/><text class="lab lft" transform="translate(-3 -6)">11</text></g><path class="edge" d="M 0 0 V -59.4961 H -34.2857"/><circle class="sym" cx="0" cy="0" r="3"/><text class="lab rgt" transform="translate(3 -6)">12</text></g><circle class="sym" cx="0" cy="0" r="3"/><text class="lab" transform="translate(0 -10)">13</text></g></g></g><g class="treebox t1" transform="translate(200.0 30)"><g class="tree t1"><g class="node n13 p0 root" transform="translate(101.429 30.0)"><g class="a13 node n8 p0" transform="translate(-34.2857 68.15)"><g class="a8 node n6 p0" transform="translate(-22.8571 8.31458)"><g class="a6 i0 leaf node n0 p0 sample" transform="translate(-11.4286 3.53538)"><path class="edge" d="M 0 0 V -3.53538 H 11.4286"/><circle class="sym" cx="0" cy="0" r="3"/><text class="lab" transform="translate(0 12)">0</text></g><g class="a6 i2 leaf node n5 p0 sample" transform="translate(11.4286 3.53538)"><path class="edge" d="M 0 0 V -3.53538 H -11.4286"/><circle class="sym" cx="0" cy="0" r="3"/><text class="lab" transform="translate(0 12)">5</text></g><path class="edge" d="M 0 0 V -8.31458 H 22.8571"/><circle class="sym" cx="0" cy="0" r="3"/><text class="lab lft" transform="translate(-3 -6)">6</text></g><g class="a8 node n7 p0" transform="translate(22.8571 3.27654)"><g class="a7 i1 leaf node n2 p0 sample" transform="translate(-11.4286 8.57342)"><path class="edge" d="M 0 0 V -8.57342 H 11.4286"/><circle class="sym" cx="0" cy="0" r="3"/><text class="lab" transform="translate(0 12)">2</text></g><g class="a7 i1 leaf node n3 p0 sample" transform="translate(11.4286 8.57342)"><path class="edge" d="M 0 0 V -8.57342 H -11.4286"/><circle class="sym" cx="0" cy="0" r="3"/><text class="lab" transform="translate(0 12)">3</text></g><path class="edge" d="M 0 0 V -3.27654 H -22.8571"/><circle class="sym" cx="0" cy="0" r="3"/><text class="lab rgt" transform="translate(3 -6)">7</text></g><path class="edge" d="M 0 0 V -68.15 H 34.2857"/><circle class="sym" cx="0" cy="0" r="3"/><text class="lab lft" transform="translate(-3 -6)">8</text></g><g class="a13 node n12 p0" transform="translate(34.2857 59.4961)"><g class="a12 i2 leaf node n4 p0 sample" transform="translate(11.4286 20.5039)"><path class="edge" d="M 0 0 V -20.5039 H -11.4286"/><circle class="sym" cx="0" cy="0" r="3"/><text class="lab" transform="translate(0 12)">4</text></g><g class="a12 node n11 p0" transform="translate(-11.4286 0.230903)"><g class="a11 node n10 p0" transform="translate(0.0 5.10159)"><g class="a10 i0 leaf node n1 p0 sample" transform="translate(0.0 15.1715)"><path class="edge" d="M 0 0 V -15.1715 H 0.0"/><circle class="sym" cx="0" cy="0" r="3"/><text class="lab" transform="translate(0 12)">1</text></g><path class="edge" d="M 0 0 V -5.10159 H 0.0"/><circle class="sym" cx="0" cy="0" r="3"/><text class="lab lft" transform="translate(-3 -6)">10</text></g><path class="edge" d="M 0 0 V -0.230903 H 11.4286"/><circle class="sym" cx="0" cy="0" r="3"/><text class="lab lft" transform="translate(-3 -6)">11</text></g><path class="edge" d="M 0 0 V -59.4961 H -34.2857"/><circle class="sym" cx="0" cy="0" r="3"/><text class="lab rgt" transform="translate(3 -6)">12</text></g><circle class="sym" cx="0" cy="0" r="3"/><text class="lab" transform="translate(0 -10)">13</text></g></g></g></g><g class="axis"><line stroke="black" x1="20" x2="380" y1="180" y2="180"/><line stroke="black" x1="20" x2="20" y1="180" y2="185"/><g transform="translate(20, 200)"><text font-size="14" font-weight="bold" text-anchor="middle">0</text></g><line stroke="black" x1="200.0" x2="200.0" y1="180" y2="185"/><g transform="translate(200.0, 200)"><text font-size="14" font-weight="bold" text-anchor="middle">1</text></g><line stroke="black" x1="380.0" x2="380.0" y1="180" y2="185"/><g transform="translate(380.0, 200)"><text font-size="14" font-weight="bold" text-anchor="middle">2</text></g></g></g></svg>